<!DOCTYPE svg PUBLIC "-//W3C//DTD SVG 1.1//EN" "http://www.w3.org/Graphics/SVG/1.1/DTD/svg11.dtd">
<!-- Uploaded to: SVG Repo, www.svgrepo.com, Transformed by: SVG Repo Mixer Tools -->
<svg fill="#000000" version="1.1" id="Capa_1" xmlns="http://www.w3.org/2000/svg" xmlns:xlink="http://www.w3.org/1999/xlink" width="800px" height="800px" viewBox="0 0 385.547 385.547" xml:space="preserve" stroke="#000000" stroke-width="0.0038554700000000006">
<g id="SVGRepo_bgCarrier" stroke-width="0"/>
<g id="SVGRepo_tracerCarrier" stroke-linecap="round" stroke-linejoin="round"/>
<g id="SVGRepo_iconCarrier"> <g> <path d="M316.532,149.093c0.062-0.737,0.914-10.333,3.861-21.05c3.117-11.317,8.616-23.674,17.963-27.961 c2.155-0.983,4.476-1.644,7.069-1.644c5.163,0,9.353-4.183,9.353-9.353s-4.189-9.353-9.353-9.353 c-33.618,0-43.696,41.047-46.527,59.497H30.769v9.353c0,45.662,21.562,86.375,55.013,112.546c0.375,3.154,2.32,6.053,5.432,7.447 l61.561,27.596l-37.488,16.8c-7.35-6.552-17.001-10.564-27.596-10.564c-22.919,0-41.564,18.651-41.564,41.57 c0,22.92,18.645,41.571,41.564,41.571s41.571-18.651,41.571-41.571c0-5.449-1.084-10.649-2.999-15.43l49.371-22.128l48.26,21.629 c-2.046,4.907-3.179,10.284-3.179,15.923c0,22.92,18.645,41.57,41.564,41.57s41.57-18.65,41.57-41.57s-18.65-41.57-41.57-41.57 c-10.388,0-19.875,3.86-27.17,10.181l-36.617-16.416l61.559-27.597c4.116-1.851,6.247-6.296,5.315-10.54 C296.512,231.899,316.374,192.782,316.532,149.093z M110.561,343.976c0,12.605-10.257,22.865-22.865,22.865 c-12.602,0-22.859-10.26-22.859-22.865c0-12.604,10.257-22.864,22.859-22.864c2.399,0,4.676,0.475,6.853,1.163 c6.777,2.149,12.157,7.307,14.572,13.963C110.001,338.666,110.561,341.248,110.561,343.976z M256.201,322.043 c1.948-0.548,3.964-0.932,6.083-0.932c12.611,0,22.865,10.261,22.865,22.864c0,12.605-10.254,22.865-22.865,22.865 c-12.599,0-22.858-10.26-22.858-22.865c0-2.91,0.603-5.681,1.596-8.244C243.615,329.069,249.241,323.979,256.201,322.043z M173.657,272.764c-65.328,0-119.04-50.704-123.835-114.83h247.676C292.693,222.06,238.981,272.764,173.657,272.764z"/> <path d="M146.003,0C82.466,0,30.775,51.69,30.775,115.228v9.354h124.581V0H146.003z M136.65,105.869H49.922 c4.421-45.772,40.94-82.298,86.722-86.722v86.722H136.65z"/> </g> </g>
</svg>