<svg width="20" height="27" viewBox="0 0 20 27" fill="none" xmlns="http://www.w3.org/2000/svg">
<path fill-rule="evenodd" clip-rule="evenodd" d="M10.2075 26.9266C10.211 26.9266 10.2145 26.9266 10.218 26.9266C10.22 26.9266 10.222 26.9266 10.2241 26.9266C14.5859 26.9245 19.9382 26.4148 19.9382 22.5599C19.9382 19.6895 16.7502 16.9833 14.8161 15.7603C14.6161 15.6339 14.5955 15.3451 14.7672 15.1822C16.3902 13.6418 17.0984 10.9715 17.0984 7.66406C16.9527 3.90014 13.928 0.894531 10.218 0.894531C6.52515 0.894531 3.51128 3.87232 3.33976 7.61173C3.33976 10.9715 4.26597 13.8706 5.64789 15.1822C5.81954 15.3451 5.79901 15.6339 5.59899 15.7603C3.66487 16.9833 0.476929 19.6895 0.476929 22.5599C0.476929 26.4148 5.82921 26.9245 10.191 26.9266C10.193 26.9266 10.1951 26.9266 10.1971 26.9266C10.2006 26.9266 10.2041 26.9266 10.2075 26.9266Z" fill="#7D848F"/>
</svg>
