<svg width="32" height="28" viewBox="0 0 32 28" fill="none" xmlns="http://www.w3.org/2000/svg">
<path fill-rule="evenodd" clip-rule="evenodd" d="M7.10427 27.2438L6.96059 22.9335C6.9564 22.8078 6.88276 22.6959 6.77079 22.6386C4.5922 21.5242 0.571716 18.0628 0.571716 12.316C0.571716 4.92626 6.95377 0.727539 14.3435 0.727539C21.5682 0.727539 27.9902 5.5434 28.2735 12.5071C28.283 12.74 28.0509 12.9059 27.8273 12.84C27.0451 12.6094 25.7255 12.316 24.4204 12.316C22.4051 12.316 15.8551 12.9878 15.8551 19.7057C15.8551 21.6721 16.3988 23.0457 16.9179 23.8493C17.0902 24.116 16.8945 24.5763 16.577 24.5763H13.5831C13.5309 24.5763 13.4795 24.5884 13.4328 24.6117L7.59019 27.533C7.37121 27.6425 7.11242 27.4885 7.10427 27.2438ZM31.4743 20.0416C31.4743 22.3099 30.0518 24.2864 27.9474 25.3209V27.012C27.9474 27.2718 27.6651 27.4333 27.4412 27.3016L25.3204 26.054C25.0798 26.0764 24.8356 26.0878 24.5884 26.0878C20.7854 26.0878 17.7025 23.3808 17.7025 20.0416C17.7025 16.7024 20.7854 13.9955 24.5884 13.9955C28.3914 13.9955 31.4743 16.7024 31.4743 20.0416Z" fill="#7D848F"/>
</svg>
